# xmcd
#
# Track frame offsets: 
#        150
#        17539
#        29094
#        45503
#        58462
#        74433
#        86892
#        99243
#        114364
#        125739
#        138375
#        152316
#        168463
#        179426
#        192927
#        207354
#        232713
#        244996
#        258907
#        268643
#
# Disc length: 3787 seconds
#
# Revision: 0
# Processed by: cddbd v1.5.2PL0 Copyright (c) Steve Scherf et al.
# Submitted via: ExactAudioCopy v1.1
#
DISCID=1a0ec914
DTITLE=Mireille Mathieu - Une Vie D'Amour - CD 3
DYEAR=2014
DGENRE=Chanson
TTITLE0=Une Vie D'Amour
TTITLE1=Ce N'Est Rien
TTITLE2=De Vous A Moi
TTITLE3=Prends Le Temps
TTITLE4=Ces Instants De Ma Vie
TTITLE5=Et C'Etait Bien
TTITLE6=Je Ne Sais Rien De Toi
TTITLE7=Tout Pour Etre Heureux
TTITLE8=Je N'Ai Jamais Eu De Poupées
TTITLE9=Les Violons De La Géorgie
TTITLE10=Sometimes
TTITLE11=Adesso Volo
TTITLE12=El Viejo Amor
TTITLE13=Der Zar Und Das Mädchen
TTITLE14=The Waltz Of Goodbye
TTITLE15=Medley Espagnol
TTITLE16=Solamente Una Vez
TTITLE17=Recuerdos De Ypacarai
TTITLE18=Quiereme Mucho
TTITLE19=C'Est L'Amour
EXTD=
EXTT0=
EXTT1=
EXTT2=
EXTT3=
EXTT4=
EXTT5=
EXTT6=
EXTT7=
EXTT8=
EXTT9=
EXTT10=
EXTT11=
EXTT12=
EXTT13=
EXTT14=
EXTT15=
EXTT16=
EXTT17=
EXTT18=
EXTT19=
PLAYORDER=
